# xmcd CD database file
# Generated: Thu Mar 11 23:26:17 2004 by KSCD
# 
# Track frame offsets:
#       150
#       27870
#       46769
#       71244
#       101223
#       118874
#       135215
#       157280
#       177434
#       196683
#       218196
#
# Disc length: 3239 seconds
#
# Revision: 1
# Processed by: cddbd v1.5PL3 Copyright (c) Steve Scherf et al.
# Submitted via: Kscd 1.3.3
#
DISCID=9e0ca50b
DTITLE=Zak Perry Band - As Live As It Gets
DYEAR=1900
DGENRE=
TTITLE0=Bad Love
TTITLE1=High As I Wanna Be
TTITLE2=Mr. Blues
TTITLE3=Wounded Puzzle
TTITLE4=I've Been Drunk on Sunday Morning
TTITLE5=When the Lord Comes Stompin'
TTITLE6=Hard Times
TTITLE7=Keep Things Simple
TTITLE8=Sleight of Hand
TTITLE9=Too Far Gone
TTITLE10=When You Love SomeOne That Way
EXTD=For more info visit http://ZakPerry.com\n
EXTT0=
EXTT1=
EXTT2=
EXTT3=
EXTT4=
EXTT5=
EXTT6=
EXTT7=
EXTT8=
EXTT9=
EXTT10=
PLAYORDER=
